<svg width="22" height="22" viewBox="0 0 22 22" fill="none" xmlns="http://www.w3.org/2000/svg">
<path d="M10.9998 13.75L8.24984 11M10.9998 13.75C12.2803 13.263 13.5086 12.6489 14.6665 11.9167M10.9998 13.75V18.3334C10.9998 18.3334 13.7773 17.8292 14.6665 16.5C15.6565 15.015 14.6665 11.9167 14.6665 11.9167M8.24984 11C8.73764 9.7345 9.35186 8.52142 10.0832 7.37919C11.1513 5.67143 12.6385 4.26532 14.4034 3.29461C16.1684 2.3239 18.1523 1.82086 20.1665 1.83336C20.1665 4.32669 19.4515 8.70836 14.6665 11.9167M8.24984 11H3.6665C3.6665 11 4.17067 8.22252 5.49984 7.33336C6.98484 6.34336 10.0832 7.33336 10.0832 7.33336M4.12484 15.125C2.74984 16.28 2.2915 19.7084 2.2915 19.7084C2.2915 19.7084 5.71984 19.25 6.87484 17.875C7.52567 17.105 7.5165 15.9225 6.79234 15.2075C6.43603 14.8674 5.96669 14.6709 5.47438 14.6557C4.98207 14.6405 4.50147 14.8076 4.12484 15.125Z" stroke="white" stroke-width="2" stroke-linecap="round" stroke-linejoin="round"/>
</svg>
