<svg width="737" height="618" viewBox="0 0 737 618" fill="none" xmlns="http://www.w3.org/2000/svg">
<path d="M114 423V99L737 0V524L114 423Z" fill="#E0E0E0" fill-opacity="0.28"/>
<path d="M124.947 448.509L156.423 465.659L124.947 482.947L107.728 514.354L90.5092 482.947L59.0332 465.659L90.5092 448.509L107.728 416.964L124.947 448.509Z" fill="black" stroke="white" stroke-miterlimit="10"/>
<path d="M345.585 304.187C414.024 341.937 472.758 381.935 512.39 416.077C532.209 433.151 547.232 448.742 556.306 461.842C560.843 468.393 563.876 474.297 565.288 479.433C566.699 484.568 566.479 488.89 564.579 492.333C562.68 495.777 559.141 498.268 554.046 499.813C548.949 501.359 542.337 501.943 534.375 501.6C518.455 500.913 497.253 496.524 472.239 488.868C422.219 473.558 357.057 445.216 288.617 407.465C220.178 369.715 161.444 329.717 121.812 295.575C101.993 278.501 86.9705 262.91 77.8969 249.81C73.3595 243.259 70.3259 237.355 68.9141 232.218C67.503 227.084 67.7226 222.763 69.6219 219.319C71.5215 215.875 75.06 213.384 80.1554 211.839C85.2531 210.293 91.8658 209.709 99.8271 210.052C115.747 210.739 136.949 215.128 161.962 222.784C211.983 238.094 277.146 266.436 345.585 304.187Z" stroke="black"/>
<path d="M325.355 340.861C393.794 378.611 452.527 418.609 492.16 452.751C511.979 469.825 527.002 485.416 536.075 498.516C540.613 505.066 543.645 510.971 545.057 516.107C546.468 521.241 546.248 525.563 544.349 529.007C542.449 532.451 538.911 534.942 533.816 536.487C528.718 538.033 522.106 538.617 514.145 538.274C498.225 537.587 477.023 533.198 452.009 525.542C401.988 510.232 336.826 481.89 268.387 444.139C199.948 406.389 141.214 366.391 101.581 332.249C81.7621 315.175 66.74 299.584 57.6664 286.484C53.129 279.933 50.0955 274.029 48.6836 268.892C47.2725 263.758 47.4921 259.437 49.3915 255.993C51.291 252.549 54.8296 250.057 59.9249 248.512C65.0227 246.966 71.6354 246.383 79.5967 246.726C95.517 247.413 116.718 251.802 141.732 259.458C191.752 274.768 256.915 303.11 325.355 340.861Z" stroke="black"/>
<path d="M305.126 377.535C373.565 415.285 432.299 455.283 471.931 489.425C491.75 506.499 506.773 522.09 515.847 535.19C520.384 541.741 523.417 547.645 524.829 552.782C526.24 557.916 526.02 562.238 524.12 565.682C522.221 569.125 518.683 571.616 513.587 573.161C508.49 574.707 501.878 575.292 493.916 574.948C477.996 574.261 456.794 569.872 431.78 562.216C381.76 546.906 316.598 518.564 248.158 480.814C179.719 443.063 120.985 403.065 81.3526 368.923C61.5336 351.849 46.5115 336.258 37.4379 323.158C32.9005 316.608 29.867 310.703 28.4551 305.566C27.044 300.433 27.2636 296.111 29.1629 292.667C31.0625 289.223 34.601 286.732 39.6964 285.187C44.7942 283.641 51.4069 283.057 59.3681 283.4C75.2885 284.087 96.4897 288.476 121.503 296.132C171.524 311.442 236.687 339.784 305.126 377.535Z" stroke="black"/>
<circle cx="131.5" cy="207.5" r="15.5" fill="#856755"/>
<circle cx="81.4995" cy="167.5" r="23.5" fill="black"/>
<path d="M305.972 486.59C299.668 488.744 292.463 484.474 289.957 477.071L250.958 362.809L273.747 355.014L312.785 469.433C315.291 476.758 312.236 484.435 305.972 486.59Z" fill="black"/>
<path d="M302.565 488C300.724 488 298.845 487.569 297.044 486.668C293.402 484.866 290.505 481.498 289.095 477.345L250.097 363.084C249.94 362.653 250.175 362.144 250.645 361.987L273.433 354.192C273.668 354.113 273.903 354.113 274.099 354.231C274.295 354.348 274.451 354.505 274.53 354.74L313.567 469.159C316.191 476.914 312.902 485.101 306.206 487.412C305.071 487.804 303.818 488 302.565 488ZM252.054 363.358L290.779 476.797C292.032 480.518 294.616 483.574 297.827 485.14C300.411 486.394 303.191 486.629 305.697 485.767C311.492 483.769 314.311 476.562 311.962 469.707L273.198 356.111L252.054 363.358Z" fill="black"/>
<path d="M269.713 256.382L195.984 308.988L167.283 338.798L156.006 358.736L155.967 358.892C153.735 362.339 155.027 370.291 159.217 378.399C163.328 386.39 169.123 391.953 173.195 392.266L173.078 392.344L194.731 394.695L235.257 388.231L321.281 357.443L428.214 375.775L428.957 375.814C402.097 370.8 365.839 334.88 339.488 284.076C313.175 233.31 304.796 183.132 316.347 158.376H316.308L270.3 255.128L269.713 256.382Z" fill="#856755"/>
<path d="M446.729 373.603C473.156 359.873 468.046 297.629 435.315 234.577C402.583 171.525 354.626 131.541 328.198 145.271C301.771 159.001 306.881 221.245 339.612 284.297C372.344 347.349 420.301 387.333 446.729 373.603Z" fill="white"/>
<path d="M435.105 377.185C423.594 377.185 409.733 370.761 394.815 358.266C374.493 341.265 354.563 315.06 338.705 284.428C314.703 238.05 304.797 190.496 313.489 163.272C316.387 154.185 321.242 147.839 327.859 144.431C341.015 137.694 359.536 143.413 380.053 160.57C400.375 177.57 420.305 203.775 436.163 234.407C460.204 280.785 470.11 328.339 461.379 355.563C458.481 364.65 453.626 370.996 447.009 374.404C443.446 376.284 439.452 377.185 435.105 377.185ZM339.841 143.413C335.808 143.413 332.049 144.235 328.682 145.998C322.456 149.171 317.914 155.203 315.173 163.86C306.598 190.692 316.465 237.736 340.271 283.723C372.692 346.279 420.226 386.312 446.265 372.955C452.49 369.782 457.032 363.75 459.773 355.093C468.348 328.261 458.481 281.216 434.675 235.23C406.444 180.782 366.819 143.413 339.841 143.413Z" fill="black"/>
<path d="M435.105 377.185C423.594 377.185 409.733 370.761 394.815 358.266C374.493 341.265 354.563 315.06 338.705 284.428C314.703 238.05 304.797 190.496 313.489 163.272C316.387 154.185 321.242 147.839 327.859 144.431C336.669 139.887 348.181 141.023 361.141 147.682C373.553 154.067 386.984 165.388 400.062 180.39C400.375 180.743 400.336 181.291 399.983 181.604C399.631 181.918 399.083 181.879 398.769 181.526C372.222 151.051 345.362 137.42 328.682 145.998C322.456 149.171 317.914 155.203 315.173 163.86C306.598 190.692 316.465 237.737 340.271 283.723C368.463 338.132 408.128 375.54 435.066 375.54C439.099 375.54 442.858 374.717 446.226 372.955C452.451 369.782 456.993 363.75 459.734 355.093C468.309 328.261 458.442 281.216 434.636 235.23C427.549 221.52 419.561 208.632 410.986 196.92C410.712 196.529 410.79 195.98 411.182 195.706C411.573 195.432 412.121 195.51 412.395 195.902C421.049 207.692 429.036 220.658 436.202 234.446C460.204 280.785 470.11 328.339 461.379 355.563C458.481 364.65 453.626 370.996 447.009 374.404C443.446 376.284 439.452 377.185 435.105 377.185Z" fill="black"/>
<path d="M386.766 293.339C392.888 290.158 391.71 275.75 384.136 261.159C376.561 246.567 365.457 237.316 359.335 240.497C353.213 243.678 354.39 258.085 361.965 272.677C369.54 287.269 380.644 296.519 386.766 293.339Z" fill="#856755"/>
<path d="M384.086 294.848C377.352 294.848 367.954 286.152 361.181 273.03C355.542 262.14 353.232 250.937 355.307 244.474C356.051 242.202 357.265 240.596 358.949 239.734C365.605 236.327 376.999 245.61 384.909 260.848C390.547 271.737 392.857 282.94 390.782 289.403C390.038 291.675 388.824 293.281 387.141 294.143C386.201 294.613 385.183 294.848 384.086 294.848ZM362.003 240.714C361.181 240.714 360.398 240.87 359.732 241.223C358.44 241.889 357.5 243.142 356.913 244.983C354.994 251.016 357.226 261.749 362.669 272.246C369.873 286.152 380.719 295.514 386.318 292.615C387.61 291.949 388.55 290.696 389.137 288.855C391.056 282.783 388.785 272.09 383.382 261.592C377.038 249.41 367.954 240.714 362.003 240.714Z" fill="#856755"/>
<path d="M429.154 362.574C419.052 362.574 406.914 356.934 393.836 346.005C376.06 331.12 358.596 308.166 344.735 281.373C323.709 240.792 315.056 199.153 322.652 175.298C325.197 167.307 329.465 161.745 335.299 158.729C348.69 151.874 368.385 159.786 389.372 180.429C389.725 180.782 389.725 181.291 389.372 181.644C389.02 181.996 388.511 181.996 388.159 181.644C367.72 161.549 348.729 153.715 336.082 160.256C330.679 163.037 326.724 168.247 324.296 175.807C316.818 199.231 325.432 240.361 346.263 280.589C370.891 328.182 405.544 360.851 429.115 360.851C432.639 360.851 435.889 360.107 438.865 358.618C444.268 355.837 448.223 350.627 450.65 343.067C458.129 319.643 449.515 278.513 428.684 238.285C422.38 226.142 415.332 214.743 407.736 204.441C407.462 204.049 407.54 203.501 407.932 203.227C408.324 202.953 408.872 203.031 409.146 203.423C416.82 213.842 423.907 225.28 430.25 237.501C451.277 278.082 459.93 319.721 452.334 343.576C449.789 351.567 445.521 357.13 439.687 360.146C436.476 361.752 432.952 362.574 429.154 362.574Z" fill="black"/>
<path d="M194.771 395.517C194.732 395.517 194.692 395.517 194.692 395.517L173.04 393.167C172.922 393.167 172.805 393.128 172.687 393.05C168.224 392.344 162.585 386.704 158.474 378.791C154.088 370.448 152.796 362.3 155.185 358.462L155.224 358.344L166.501 338.367C166.54 338.289 166.579 338.249 166.618 338.21L195.319 308.401C195.358 308.362 195.397 308.323 195.436 308.284L268.97 255.794L315.486 157.985C315.604 157.789 315.76 157.632 315.995 157.554C316.23 157.475 316.465 157.475 316.661 157.593C317.092 157.789 317.288 158.298 317.092 158.729C305.306 183.994 314.625 234.211 340.232 283.645C365.879 333.157 401.628 369.821 429.154 374.874C429.585 374.953 429.898 375.344 429.859 375.814C429.82 376.245 429.428 376.559 428.997 376.598L428.253 376.559C428.214 376.559 428.175 376.559 428.136 376.559L321.399 358.266L235.571 388.976C235.531 388.976 235.453 389.015 235.414 389.015L194.888 395.478C194.849 395.517 194.81 395.517 194.771 395.517ZM173.666 391.522L194.771 393.794L235.101 387.331L321.086 356.581C321.242 356.542 321.36 356.503 321.516 356.542L417.603 372.994C391.643 361.595 361.298 327.947 338.784 284.468C316.426 241.301 306.441 197.469 311.923 169.775L270.497 256.735C270.419 256.852 270.34 256.97 270.223 257.048L196.572 309.655L167.989 339.307L156.712 359.284C156.712 359.323 156.673 359.363 156.673 359.363C154.637 362.535 156.007 370.37 159.962 378.008C163.838 385.49 169.437 391.13 173.275 391.404C173.431 391.404 173.549 391.444 173.666 391.522Z" fill="black"/>
<path d="M269.83 256.069L316.307 158.337H316.346C304.795 183.093 313.214 233.271 339.487 284.037C365.838 334.881 402.096 370.8 429.035 375.736L428.291 375.697L321.515 357.404L319.048 356.973C306.636 354.779 290.073 338.641 278.209 315.608C266.032 291.988 263.878 268.447 269.282 257.244L269.83 256.069Z" fill="white"/>
<path d="M429.035 376.598C428.996 376.598 429.035 376.598 429.035 376.598L428.252 376.558C428.213 376.558 428.174 376.558 428.135 376.558L321.358 358.266L318.892 357.835C305.775 355.524 289.134 338.719 277.426 316.039C264.153 290.265 263.487 267.311 268.499 256.891L269.086 255.716L315.563 158.024C315.681 157.828 315.837 157.671 316.072 157.593C316.307 157.514 316.542 157.514 316.738 157.632C317.169 157.828 317.365 158.337 317.169 158.768C305.383 184.033 314.702 234.25 340.31 283.684C365.956 333.196 401.705 369.86 429.231 374.913C429.662 374.992 429.975 375.383 429.936 375.853C429.818 376.245 429.466 376.598 429.035 376.598ZM311.844 169.775L270.613 256.46L270.026 257.635C265.053 267.977 266.502 291.087 278.953 315.217C290.426 337.466 306.597 353.918 319.205 356.111L321.672 356.542L417.563 372.994C391.603 361.595 361.258 327.947 338.743 284.467C316.386 241.301 306.401 197.469 311.844 169.775Z" fill="black"/>
<path d="M193.596 395.4C193.556 395.4 193.517 395.4 193.517 395.4L173 393.206C172.882 393.206 172.765 393.167 172.648 393.089C168.184 392.383 162.546 386.743 158.434 378.83C154.088 370.448 152.796 362.3 155.184 358.461L155.223 358.344L166.5 338.367C166.735 337.936 167.244 337.818 167.675 338.053C168.106 338.288 168.223 338.798 167.988 339.228L156.711 359.284C156.711 359.323 156.672 359.362 156.672 359.362C154.636 362.535 156.007 370.369 159.961 378.008C163.838 385.489 169.437 391.13 173.274 391.404C173.392 391.404 173.548 391.443 173.626 391.522L193.674 393.676C194.144 393.715 194.496 394.146 194.418 394.616C194.379 395.047 194.026 395.4 193.596 395.4Z" fill="black"/>
<path d="M194.966 394.538C188.309 394.068 178.99 384.628 172.217 371.584C165.051 357.757 163.367 343.459 167.753 338.367L156.045 358.736L155.967 358.893C153.735 362.34 155.027 370.291 159.217 378.4C163.328 386.391 169.123 391.953 173.195 392.266L173.078 392.345L194.966 394.538Z" fill="white"/>
<path d="M194.966 395.4C194.927 395.4 194.927 395.4 194.888 395.4C194.731 395.4 194.535 395.361 194.379 395.361L173 393.206C172.882 393.206 172.765 393.167 172.648 393.089C168.184 392.384 162.546 386.743 158.434 378.83C154.088 370.448 152.796 362.3 155.184 358.462L155.223 358.344L165.521 340.404C165.913 339.385 166.422 338.484 167.048 337.74C167.322 337.388 167.831 337.348 168.184 337.583C168.536 337.858 168.654 338.328 168.419 338.719L166.97 341.187C164.66 347.415 166.931 359.637 172.882 371.075C179.343 383.57 188.153 392.697 194.457 393.52L194.927 393.559C195.397 393.598 195.749 394.029 195.71 394.499C195.749 395.047 195.397 395.4 194.966 395.4ZM173.626 391.522L188.584 393.05C182.828 389.367 176.485 381.768 171.434 371.976C166.539 362.535 164.112 352.743 164.503 345.692L156.711 359.284C156.711 359.323 156.672 359.363 156.672 359.363C154.636 362.535 156.007 370.37 159.961 378.008C163.838 385.49 169.437 391.13 173.274 391.404C173.392 391.404 173.548 391.444 173.626 391.522Z" fill="black"/>
<path d="M233.807 388.388L235.53 388.035C226.211 389.994 211.489 375.892 201.113 355.876C190.502 335.429 188.505 315.021 196.023 308.988L195.044 309.968L167.831 338.249C163.367 343.263 165.012 357.639 172.216 371.544C179.147 384.941 188.975 394.499 195.67 394.459L233.807 388.388Z" fill="black"/>
<path d="M195.632 395.361C188.506 395.361 178.599 385.764 171.434 371.975C164.151 357.874 162.311 343.146 167.166 337.701L193.87 309.968C194.34 309.341 194.888 308.793 195.475 308.323C195.828 308.048 196.337 308.088 196.65 308.401C196.963 308.754 196.963 309.263 196.65 309.576L195.123 311.182C189.68 318.468 192.382 337.113 201.897 355.485C212.155 375.305 226.486 388.897 235.257 387.252L235.374 387.213C235.844 387.135 236.275 387.409 236.392 387.879C236.471 388.349 236.197 388.78 235.727 388.897C235.688 388.897 235.648 388.897 235.609 388.937L234.004 389.25H233.965L195.828 395.321C195.749 395.321 195.671 395.361 195.632 395.361ZM191.599 314.825L168.458 338.876C164.151 343.733 166.109 357.913 173 371.192C179.735 384.197 189.25 393.598 195.632 393.637L229.305 388.271C220.221 385.059 209.023 372.955 200.37 356.307C192.147 340.443 188.975 324.304 191.599 314.825Z" fill="black"/>
<path d="M359.341 240.479C353.193 243.612 354.094 258.145 361.925 272.638C375.042 296.885 385.496 294.025 386.71 293.594C386.749 293.594 386.749 293.634 386.71 293.634L364.196 311.77C357.579 302.486 351.275 292.145 345.48 280.981C339.959 270.288 335.299 259.633 331.619 249.292L359.341 240.479Z" fill="black"/>
<path d="M364.196 312.631C364.156 312.631 364.117 312.631 364.078 312.631C363.843 312.592 363.647 312.475 363.491 312.279C356.717 302.76 350.413 292.341 344.735 281.412C339.293 270.914 334.594 260.221 330.835 249.645C330.757 249.41 330.757 249.174 330.874 248.979C330.992 248.783 331.149 248.626 331.384 248.548L359.105 239.734C359.536 239.617 360.006 239.813 360.163 240.243C360.319 240.674 360.163 241.144 359.771 241.34C358.44 242.006 357.461 243.338 356.874 245.297C354.955 251.446 357.304 262.336 362.747 272.325C375.551 295.984 385.418 293.281 386.475 292.889C386.866 292.733 387.336 292.928 387.532 293.281C387.728 293.634 387.65 294.143 387.336 294.417L364.744 312.436C364.587 312.553 364.391 312.631 364.196 312.631ZM332.754 249.84C336.474 260.064 341.016 270.405 346.262 280.59C351.744 291.166 357.852 301.233 364.391 310.516L383.93 294.77C379.466 294.574 371.048 291.244 361.181 273.03C355.464 262.493 353.115 251.368 355.19 244.67C355.464 243.808 355.777 243.064 356.169 242.359L332.754 249.84Z" fill="black"/>
<path d="M475.186 184.597C493.086 175.194 500.009 153.116 490.65 135.285C481.29 117.455 459.191 110.623 441.291 120.027C423.391 129.431 416.468 151.508 425.828 169.339C435.187 187.17 457.286 194.001 475.186 184.597Z" fill="black"/>
<path d="M441.567 144.235C443.29 141.885 445.835 140.436 448.732 140.122C450.925 139.887 452.961 140.357 454.879 141.532C455.858 142.12 456.72 142.864 457.542 143.765C458.129 142.708 458.834 141.767 459.656 140.984C461.262 139.417 463.18 138.516 465.334 138.281C468.231 137.968 471.051 138.83 473.243 140.749C475.397 142.629 476.767 145.371 477.12 148.466C477.472 151.639 476.611 154.694 474.418 158.063C472.46 161.079 469.484 164.212 466.039 167.894C464.864 169.148 463.533 170.558 462.162 172.047C461.81 172.438 461.301 172.713 460.753 172.752C460.205 172.83 459.696 172.673 459.226 172.36C457.542 171.185 455.937 170.088 454.527 169.148C450.377 166.328 446.774 163.899 444.19 161.392C441.293 158.611 439.805 155.791 439.452 152.618C439.139 149.523 439.883 146.546 441.567 144.235Z" fill="white"/>
<path d="M576.735 186.592C589.839 173.483 589.839 152.228 576.735 139.118C563.63 126.009 542.384 126.009 529.28 139.118C516.175 152.228 516.175 173.483 529.28 186.592C542.384 199.702 563.63 199.702 576.735 186.592Z" fill="#856755"/>
<path d="M553.001 197.273C534.05 197.273 518.583 181.84 518.583 162.842C518.583 143.883 534.011 128.41 553.001 128.41C571.991 128.41 587.418 143.844 587.418 162.842C587.418 181.8 571.991 197.273 553.001 197.273ZM553.001 130.134C534.99 130.134 520.306 144.784 520.306 162.842C520.306 180.86 534.95 195.549 553.001 195.549C571.012 195.549 585.696 180.9 585.696 162.842C585.696 144.823 571.052 130.134 553.001 130.134Z" fill="#856755"/>
<path d="M562.085 166.171C560.205 166.171 558.561 167.072 557.464 168.482L546.148 164.056C546.148 163.899 546.187 163.782 546.187 163.625C546.187 163.351 546.148 163.077 546.109 162.803L557.699 157.436C558.756 158.65 560.323 159.434 562.085 159.473C565.295 159.473 567.958 156.849 567.958 153.597C567.958 150.346 565.334 147.683 562.085 147.683C558.874 147.683 556.211 150.307 556.211 153.558C556.211 153.832 556.25 154.107 556.29 154.381L544.7 159.747C543.642 158.533 542.076 157.75 540.314 157.71C537.103 157.71 534.441 160.335 534.441 163.586C534.441 166.837 537.064 169.501 540.314 169.501C542.194 169.501 543.838 168.6 544.935 167.19L556.25 171.616C556.25 171.773 556.211 171.89 556.211 172.047C556.211 175.298 558.835 177.962 562.085 177.962C565.295 177.962 567.958 175.337 567.958 172.086C567.919 168.835 565.295 166.21 562.085 166.171Z" fill="black"/>
<path d="M562.529 292.993C577.896 282.322 581.756 261.282 571.152 245.999C560.548 230.715 539.494 226.975 524.128 237.645C508.761 248.315 504.901 269.355 515.505 284.639C526.109 299.923 547.163 303.663 562.529 292.993Z" fill="black"/>
<path d="M534.874 281.373L529.94 254.619C529.705 253.248 530.958 252.112 532.289 252.465L561.46 260.73C562.948 261.161 563.3 263.08 562.087 264.02L537.81 282.509C536.753 283.371 535.148 282.783 534.874 281.373Z" fill="white"/>
<path d="M542.998 402.581C561.974 393.34 569.915 370.553 560.733 351.686C551.552 332.819 528.726 325.016 509.75 334.257C490.773 343.499 482.833 366.286 492.014 385.153C501.195 404.02 524.022 411.823 542.998 402.581Z" fill="#856755"/>
<path d="M526.18 407.347C522.108 407.347 517.958 406.72 513.925 405.349C504.057 402.059 496.07 395.165 491.449 385.842C486.829 376.558 486.124 366.021 489.453 356.15C496.344 335.821 518.506 324.735 538.906 331.512C548.773 334.802 556.76 341.696 561.381 351.019C566.001 360.302 566.706 370.839 563.378 380.71C557.818 397.006 542.508 407.347 526.18 407.347ZM526.572 331.277C510.949 331.277 496.305 341.148 491.019 356.738C487.847 366.178 488.513 376.245 492.937 385.098C497.362 393.989 504.997 400.609 514.434 403.743C533.933 410.206 555.116 399.63 561.694 380.201C564.866 370.761 564.2 360.694 559.775 351.841C555.351 342.95 547.716 336.33 538.279 333.196C534.403 331.864 530.448 331.277 526.572 331.277Z" fill="black"/>
<path d="M545.837 362.261C545.446 371.78 529.353 394.029 525.516 399.238C525.124 399.787 524.302 399.748 523.95 399.16C521.522 395.243 513.495 382.082 509.306 371.427C507.622 367.197 506.565 363.358 506.682 360.655C507.113 349.844 516.236 341.422 527.043 341.853C537.85 342.362 546.268 351.45 545.837 362.261Z" fill="black"/>
<path d="M532.593 367.826C536.094 364.323 536.094 358.644 532.593 355.141C529.091 351.638 523.414 351.638 519.912 355.141C516.41 358.644 516.41 364.323 519.912 367.826C523.414 371.329 529.091 371.329 532.593 367.826Z" fill="#856755"/>
</svg>
